<?xml version="1.0" encoding="UTF-8" standalone="no"?>
<svg
   xmlns:dc="http://purl.org/dc/elements/1.1/"
   xmlns:cc="http://creativecommons.org/ns#"
   xmlns:rdf="http://www.w3.org/1999/02/22-rdf-syntax-ns#"
   xmlns:svg="http://www.w3.org/2000/svg"
   xmlns="http://www.w3.org/2000/svg"
   xmlns:sodipodi="http://sodipodi.sourceforge.net/DTD/sodipodi-0.dtd"
   xmlns:inkscape="http://www.inkscape.org/namespaces/inkscape"
   width="40mm"
   height="40mm"
   viewBox="0 0 40 40"
   version="1.1"
   id="svg8"
   inkscape:version="1.0.2-2 (e86c870879, 2021-01-15)"
   sodipodi:docname="jupyter_box.svg"
   inkscape:export-filename="C:\Users\chops\Pictures\work_images\c_sharp_2.png"
   inkscape:export-xdpi="5.3492537"
   inkscape:export-ydpi="5.3492537">
  <defs
     id="defs2" />
  <sodipodi:namedview
     id="base"
     pagecolor="#ffffff"
     bordercolor="#666666"
     borderopacity="1.0"
     inkscape:pageopacity="0.0"
     inkscape:pageshadow="2"
     inkscape:zoom="3.3301783"
     inkscape:cx="-7.4750838"
     inkscape:cy="70.876499"
     inkscape:document-units="mm"
     inkscape:current-layer="layer3"
     inkscape:document-rotation="0"
     showgrid="false"
     inkscape:window-width="1728"
     inkscape:window-height="944"
     inkscape:window-x="126"
     inkscape:window-y="27"
     inkscape:window-maximized="0" />
  <metadata
     id="metadata5">
    <rdf:RDF>
      <cc:Work
         rdf:about="">
        <dc:format>image/svg+xml</dc:format>
        <dc:type
           rdf:resource="http://purl.org/dc/dcmitype/StillImage" />
        <dc:title />
      </cc:Work>
    </rdf:RDF>
  </metadata>
  <g
     inkscape:groupmode="layer"
     id="layer3"
     inkscape:label="block"
     style="display:inline">
    <rect
       style="fill:#6c757d;fill-opacity:1;stroke-width:0.0695603"
       id="rect1571"
       width="39.947575"
       height="39.947575"
       x="0.043889061"
       y="1.6348703e-06"
       ry="5.0875082" />
  </g>
  <g
     inkscape:groupmode="layer"
     id="layer4"
     inkscape:label="vector"
     style="display:inline">
    <path
       id="path882"
       style="fill:#ffffff;fill-opacity:1;stroke:none;stroke-width:0.13139"
       d="M 29.703974,4.3881066 C 29.57265,4.3846166 29.434519,4.3954966 29.28957,4.4224106 26.850846,4.8752978 27.526065,8.570274 29.946396,8.1131692 32.078853,7.7104278 31.67384,4.4403904 29.703974,4.3881066 Z M 20.020823,7.1242719 C 15.009802,7.2376778 10.107132,10.104304 8.3987532,15.121449 9.7389003,14.177545 10.816163,13.100975 12.340165,12.402664 18.184907,9.7245734 27.407773,9.9514587 31.917332,15.121449 32.040576,14.381331 31.276921,13.362559 30.884066,12.756235 29.480692,10.590485 27.370004,8.8627171 24.953879,7.9507932 23.373851,7.3544215 21.691163,7.0864699 20.020823,7.1242719 Z M 8.8277939,7.4096893 C 8.7326993,7.4123608 8.6331832,7.4252811 8.5300254,7.4499404 6.8154294,7.8597973 7.4688931,10.523937 9.1863952,10.071298 10.73708,9.6626314 10.254207,7.3696155 8.8277939,7.4096893 Z m 16.3886321,9.0254117 -1.313652,1.182836 v 0.525552 H 24.5596 c 0,0.867435 -0.287331,2.36704 0.155058,3.135933 0.39036,0.678234 1.411366,0.701119 1.552873,-0.113893 -1.461185,-0.111155 -1.051105,-1.950557 -1.051105,-3.02204 h 1.051105 v -0.525552 h -1.051105 z m 3.958337,1.045159 c -1.535542,-0.03427 -3.335779,2.57419 -1.32463,3.986695 0.306795,0.215479 0.675034,0.316446 1.045159,0.342593 0.544478,0.03837 1.058456,-0.104617 1.576656,-0.250198 l -0.131273,-0.525552 c -0.46131,0.08567 -3.281923,0.0865 -2.388999,-1.103249 0.372227,-0.495865 2.084795,-0.210403 2.652004,-0.210403 -0.0011,-0.396534 0.02016,-0.807522 -0.132646,-1.182378 -0.302065,-0.74094 -0.784423,-1.046084 -1.296271,-1.057508 z m -12.143047,0.0059 c -0.152429,-0.0028 -0.315046,0.01385 -0.487132,0.05214 -0.418476,0.09316 -0.728017,0.34052 -1.051104,0.60514 v -0.525553 h -0.656826 v 5.781076 h 0.788557 L 15.49348,21.296796 c 0.413615,0.211275 0.837426,0.4682 1.314108,0.48896 2.571586,0.112463 2.510546,-4.257709 0.224128,-4.299557 z m -9.2902484,4.57e-4 c 0,1.422163 0.6722948,5.009182 -1.1823764,5.386796 0.3944041,0.98043 1.5198493,0.209641 1.7536703,-0.52601 0.4435323,-1.39549 0.085991,-3.399469 0.085991,-4.860786 z m 26.1467994,0 c -0.613064,0.06319 -1.0014,0.247562 -1.314109,0.788099 H 32.442884 V 17.61789 h -0.656826 v 4.073145 h 0.7881 c 0,-1.358571 -0.426935,-3.231995 1.314109,-3.547592 z M 9.8441352,17.617933 c 0,1.289065 -0.3987577,4.86828 1.9686488,4.091898 0.341836,-0.112207 0.62719,-0.346038 0.921661,-0.544305 v 0.525552 h 0.656824 v -4.073141 h -0.788098 c 0,0.852588 0.41779,3.578265 -1.050648,3.475781 -1.335958,-0.09329 -0.920289,-2.611106 -0.920289,-3.475781 z m 9.4599418,0 c 0.768761,1.982145 2.318272,3.819448 0.262547,5.386796 l 0.131731,0.525552 c 1.918422,-0.387073 3.119841,-4.193376 3.415862,-5.912348 h -0.7881 l -0.919831,3.153314 h -0.131274 l -1.051105,-3.153314 z m 9.614085,0.463346 c 0.498657,-0.03029 0.967663,0.310717 1.028234,1.113311 h -2.233483 c 0.178428,-0.681454 0.706592,-1.083026 1.205249,-1.113311 z m -12.110574,0.01739 c 1.667863,0 1.599131,3.132287 -0.131273,3.056344 -1.619246,-0.07109 -1.442251,-3.056344 0.131273,-3.056344 z m -8.4088348,5.957174 c 2.9832428,8.7612 14.8666218,10.484716 21.0202608,4.204419 1.128902,-1.152027 2.178663,-2.639041 2.629592,-4.204419 h -0.131274 c -1.12785,1.474719 -3.033335,2.454857 -4.72997,3.126784 -4.633723,1.83538 -10.32003,1.666379 -14.847197,-0.408003 -1.524016,-0.698204 -2.6012647,-1.77488 -3.9414118,-2.718783 z m 2.2046658,7.523769 a 2.1871639,2.1871639 0 0 0 -2.1817972,2.187286 2.1871639,2.1871639 0 0 0 2.1872872,2.187285 2.1871639,2.1871639 0 0 0 2.187285,-2.187285 2.1871639,2.1871639 0 0 0 -2.187285,-2.187286 2.1871639,2.1871639 0 0 0 -0.0055,0 z" />
  </g>
</svg>
