<?xml version="1.0" encoding="UTF-8" standalone="no"?>
<svg
   xmlns:dc="http://purl.org/dc/elements/1.1/"
   xmlns:cc="http://creativecommons.org/ns#"
   xmlns:rdf="http://www.w3.org/1999/02/22-rdf-syntax-ns#"
   xmlns:svg="http://www.w3.org/2000/svg"
   xmlns="http://www.w3.org/2000/svg"
   xmlns:sodipodi="http://sodipodi.sourceforge.net/DTD/sodipodi-0.dtd"
   xmlns:inkscape="http://www.inkscape.org/namespaces/inkscape"
   width="40mm"
   height="40mm"
   viewBox="0 0 40 40"
   version="1.1"
   id="svg8"
   inkscape:version="1.0.2-2 (e86c870879, 2021-01-15)"
   sodipodi:docname="numpy_box.svg"
   inkscape:export-filename="C:\Users\chops\Pictures\work_images\c_sharp_2.png"
   inkscape:export-xdpi="5.3492537"
   inkscape:export-ydpi="5.3492537">
  <defs
     id="defs2" />
  <sodipodi:namedview
     id="base"
     pagecolor="#ffffff"
     bordercolor="#666666"
     borderopacity="1.0"
     inkscape:pageopacity="0.0"
     inkscape:pageshadow="2"
     inkscape:zoom="3.3301783"
     inkscape:cx="162.61368"
     inkscape:cy="95.011604"
     inkscape:document-units="mm"
     inkscape:current-layer="layer2"
     inkscape:document-rotation="0"
     showgrid="false"
     inkscape:window-width="1728"
     inkscape:window-height="944"
     inkscape:window-x="37"
     inkscape:window-y="23"
     inkscape:window-maximized="0" />
  <metadata
     id="metadata5">
    <rdf:RDF>
      <cc:Work
         rdf:about="">
        <dc:format>image/svg+xml</dc:format>
        <dc:type
           rdf:resource="http://purl.org/dc/dcmitype/StillImage" />
        <dc:title />
      </cc:Work>
    </rdf:RDF>
  </metadata>
  <g
     inkscape:groupmode="layer"
     id="layer3"
     inkscape:label="block">
    <rect
       style="fill:#6c757d;fill-opacity:1;stroke-width:0.0695603"
       id="rect1571"
       width="39.947575"
       height="39.947575"
       x="0.043889061"
       y="1.6348703e-06"
       ry="5.0875082" />
  </g>
  <g
     inkscape:groupmode="layer"
     id="layer2"
     inkscape:label="vector"
     style="display:inline">
    <path
       id="path851"
       style="opacity:1;fill:#ffffff;fill-opacity:1;stroke:none;stroke-width:0.0584309"
       d="m 20.484096,3.4647427 c -1.562367,0.7262798 -3.806162,1.970796 -5.310815,2.6593449 l -0.03938,0.00668 -0.120171,0.05187 c 1.543848,0.7500677 4.092349,2.0434692 5.661913,2.7921832 1.436365,-0.767675 3.968336,-2.0442677 5.190476,-2.733807 -1.613285,-0.900801 -3.975962,-2.025695 -5.382027,-2.7762642 z M 12.455393,7.4891095 C 10.743881,8.3070528 7.751922,9.7601086 6.31074,10.57145 c 1.368684,0.742364 3.953945,2.006385 5.738261,2.870415 2.121506,-1.090435 4.452193,-2.279272 6.006336,-3.104082 C 15.951068,9.2408766 14.707301,8.5773678 12.455393,7.4891095 Z m 16.037892,0.035949 c -1.431686,0.7251553 -3.854898,1.9998381 -5.237548,2.7541805 1.282557,0.830712 4.221427,2.179758 5.827107,2.99846 1.179455,-0.578522 3.989266,-1.965591 5.438175,-2.715493 C 33.064748,9.7636326 29.589828,8.0832318 28.493285,7.5250585 Z m -7.89364,4.0669905 -5.968846,3.156806 c 0.730451,0.330331 4.143608,2.221789 5.7915,2.899859 1.520231,-0.737738 4.566001,-2.28037 6.070187,-3.052042 -1.610936,-0.837666 -4.339242,-2.23326 -5.892841,-3.004623 z M 4.7331079,12.266001 V 24.47793 c 0,1.195554 -0.085713,3.876955 0.093295,4.739746 1.0514016,0.804726 2.8893621,1.72796 3.8216841,2.155207 v -8.823169 h 0.05837 c 1.84319,3.69637 4.280123,8.664379 6.225964,11.677321 1.187857,0.963203 2.865158,1.886751 4.349959,2.755208 V 24.594849 c 0,-1.215828 0.04769,-3.715262 0.01198,-4.908018 -1.679165,-0.860787 -3.164806,-1.604402 -4.452662,-2.220429 v 9.524169 C 13.47915,24.0865 12.117581,21.181262 10.739957,18.284319 10.184163,17.115528 9.718189,15.838302 8.820983,14.424119 7.4817346,13.489343 6.3825655,13.090985 4.7331079,12.266001 Z m 31.3773581,0.233667 c -1.43129,0.647821 -4.450736,2.167051 -5.608164,2.752297 -0.0069,1.754948 0.01198,4.390164 0.01198,6.15869 l -0.01318,1.197603 c 1.801152,-0.937912 4.119869,-2.046119 5.624597,-2.824537 0.04892,-2.188261 -0.02839,-5.103203 -0.01524,-7.284053 z m -7.890732,3.914979 c -1.580613,0.857298 -5.26259,2.532956 -6.572784,3.287591 -0.01948,1.63501 -0.06444,5.573319 -0.02722,7.381285 1.334152,-0.640869 5.256793,-2.619686 6.59401,-3.262426 -0.03175,-0.919438 0.0267,-5.942173 0.006,-7.40645 z m 7.87755,5.978775 c -1.233899,0.634662 -4.332278,2.166989 -5.594982,2.818032 -0.06587,1.924313 -0.0012,5.606453 -0.0012,7.388476 2.576783,-1.217623 4.217182,-1.948693 5.620655,-2.799031 0.01219,-2.170738 0.02816,-5.710692 -0.02448,-7.407477 z m -7.933356,3.954353 c -1.639139,0.854479 -5.072072,2.571215 -6.537006,3.29632 -0.01534,2.357896 0.01913,5.049676 -0.0072,7.396522 1.901947,-0.940852 4.792482,-2.323667 6.534952,-3.219631 0.0598,-1.921203 0.05752,-6.00671 0.0092,-7.473211 z m 0.820656,15.273899 c 0.0052,0.0036 0.009,0.0068 0.02328,0.01351 8.7e-5,5.3e-5 2.62e-4,8.3e-5 3.64e-4,1.76e-4 5.3e-4,-8.3e-5 0.001,-2.62e-4 0.0016,-3.32e-4 -0.0083,-0.0046 -0.01675,-0.0089 -0.02516,-0.01335 z M 0.78406249,42.657678 c -0.00865,0.008 -0.017603,0.01567 -0.02602,0.02378 -0.021165,0.09558 -0.037933,0.160615 -0.051184,0.209702 0.023643,-0.07899 0.047985,-0.157522 0.077204,-0.233496 z m -0.141227,0.299232 c -0.014174,0.03342 -0.1366923,0.403032 -0.08816,0.330042 0.00437,-0.02843 0.00865,-0.05683 0.01301,-0.08525 0.02458,-0.07873 0.051072,-0.156938 0.07378,-0.236232 0.00322,-0.01123 0.00339,-0.01332 0.00136,-0.0086 z M 34.552175,43.750519 c -0.01389,-0.0041 -0.01772,0.125883 -0.01524,0.204392 0.02037,-0.03207 0.03734,-0.0639 0.05016,-0.09535 -0.0087,-0.03174 -0.01743,-0.0634 -0.02722,-0.09484 -0.0029,-0.009 -0.0054,-0.01355 -0.0077,-0.01421 z m 3.928333,1.004849 c -0.0023,0.04121 -0.0048,0.08651 -0.006,0.107676 0.0099,-0.01968 0.02041,-0.03881 0.03047,-0.05837 -0.0079,-0.01677 -0.0164,-0.03276 -0.02448,-0.0493 z m -7.953898,0.935008 c 1.75e-4,10e-4 -2.63e-4,0.004 1.75e-4,0.005 0.01708,0.0078 0.02455,0.01172 0.04348,0.0202 0.02678,0.0027 0.09817,0.02833 0.08028,0.0082 -0.01737,-0.01951 -0.06671,-0.02905 -0.123938,-0.03337 z M 2.7662025,46.197593 c -0.00624,6.63e-4 -0.016557,0.0039 -0.03903,0.01027 0.00906,0.01239 0.049678,0.01183 0.085249,0.0079 -0.033132,-0.01172 -0.034843,-0.01941 -0.046219,-0.01815 z m 35.6605515,1.15618 c 9e-5,0.0061 7.6e-5,0.01209 1.76e-4,0.01815 0.0023,0.0096 0.01047,0.0379 0.01335,0.04895 -0.0042,-0.02411 -0.0078,-0.0427 -0.01351,-0.0671 z M 4.8911104,49.692832 c -0.00228,-1.75e-4 -0.00875,0.0013 -0.020542,0.0046 -0.024476,0.0071 -0.050648,0.02014 -0.077204,0.03493 0.00145,10e-4 0.00283,0.0017 0.00428,0.0027 0.046248,-0.01779 0.1037372,-0.04146 0.093467,-0.04211 z m 17.1185786,0.407932 c -0.05558,0.01852 -0.09939,0.04083 -0.131983,0.06659 0.0026,0.0065 0.0051,0.01305 0.0077,0.01951 -0.0065,0.01865 -0.01115,0.039 -0.01592,0.05923 h 0.117432 c 0.0075,-0.02627 0.01582,-0.052 0.02397,-0.07087 0.0044,-0.01033 0.01017,-0.02014 0.01506,-0.03031 -3.6e-5,-0.0013 -1.31e-4,-0.0029 -1.75e-4,-0.0044 -0.0053,-0.01324 -0.01091,-0.0264 -0.01609,-0.03972 z" />
  </g>
</svg>
