<?xml version="1.0" encoding="UTF-8" standalone="no"?>
<svg
   xmlns:dc="http://purl.org/dc/elements/1.1/"
   xmlns:cc="http://creativecommons.org/ns#"
   xmlns:rdf="http://www.w3.org/1999/02/22-rdf-syntax-ns#"
   xmlns:svg="http://www.w3.org/2000/svg"
   xmlns="http://www.w3.org/2000/svg"
   xmlns:sodipodi="http://sodipodi.sourceforge.net/DTD/sodipodi-0.dtd"
   xmlns:inkscape="http://www.inkscape.org/namespaces/inkscape"
   width="40mm"
   height="40mm"
   viewBox="0 0 40 40"
   version="1.1"
   id="svg8"
   inkscape:version="1.0.2-2 (e86c870879, 2021-01-15)"
   sodipodi:docname="ruby_box.svg"
   inkscape:export-filename="C:\Users\chops\Pictures\work_images\c_sharp_2.png"
   inkscape:export-xdpi="5.3492537"
   inkscape:export-ydpi="5.3492537">
  <defs
     id="defs2" />
  <sodipodi:namedview
     id="base"
     pagecolor="#ffffff"
     bordercolor="#666666"
     borderopacity="1.0"
     inkscape:pageopacity="0.0"
     inkscape:pageshadow="2"
     inkscape:zoom="2.8"
     inkscape:cx="87.836116"
     inkscape:cy="58.354943"
     inkscape:document-units="mm"
     inkscape:current-layer="layer4"
     inkscape:document-rotation="0"
     showgrid="false"
     inkscape:window-width="1920"
     inkscape:window-height="1017"
     inkscape:window-x="-8"
     inkscape:window-y="-8"
     inkscape:window-maximized="1" />
  <metadata
     id="metadata5">
    <rdf:RDF>
      <cc:Work
         rdf:about="">
        <dc:format>image/svg+xml</dc:format>
        <dc:type
           rdf:resource="http://purl.org/dc/dcmitype/StillImage" />
        <dc:title />
      </cc:Work>
    </rdf:RDF>
  </metadata>
  <g
     inkscape:groupmode="layer"
     id="layer3"
     inkscape:label="block">
    <rect
       style="fill:#6c757d;fill-opacity:1;stroke-width:0.0695603"
       id="rect1571"
       width="39.947575"
       height="39.947575"
       x="0.043889061"
       y="1.6348703e-06"
       ry="5.0875082" />
  </g>
  <g
     inkscape:groupmode="layer"
     id="layer4"
     inkscape:label="gem"
     style="display:inline">
    <g
       id="g2827"
       style="fill:#ffffff;fill-opacity:1"
       transform="matrix(0.80993062,0,0,0.80993062,6.7352208,6.7590414)">
      <path
         style="fill:#ffffff;fill-opacity:1;stroke-width:0.0755952"
         d="m 15.790012,21.060856 c 0,-0.0157 0.05953,-0.07523 0.132292,-0.132291 0.119898,-0.09403 0.122572,-0.09136 0.02854,0.02854 -0.09875,0.125922 -0.160833,0.165967 -0.160833,0.103749 z m 2.192262,-2.041071 c 0,-0.0157 0.05953,-0.07523 0.132292,-0.132292 0.119898,-0.09403 0.122572,-0.09136 0.02854,0.02854 -0.09876,0.125923 -0.160834,0.165968 -0.160834,0.10375 z M 14.278107,8.9656172 c 0,-0.015698 0.05953,-0.075229 0.132292,-0.1322917 0.119898,-0.094031 0.122572,-0.091357 0.02854,0.028541 -0.09876,0.1259226 -0.160833,0.1659678 -0.160833,0.1037503 z M 13.74894,7.5293075 c 0,-0.015698 0.05953,-0.075229 0.132292,-0.1322917 0.119899,-0.094031 0.122572,-0.091357 0.02854,0.028541 -0.09875,0.125923 -0.160832,0.1659682 -0.160832,0.1037507 z M 25.485102,4.2531078 c 0.114338,-0.017321 0.301436,-0.017321 0.415774,0 0.114338,0.017321 0.02079,0.031492 -0.207887,0.031492 -0.228675,0 -0.322224,-0.014171 -0.207887,-0.031492 z"
         id="path2843" />
      <path
         style="fill:#ffffff;fill-opacity:1;stroke-width:0.0755952"
         d="m 24.955936,4.2551434 c 0.07276,-0.019014 0.191823,-0.019014 0.264583,0 0.07276,0.019014 0.01323,0.034572 -0.132292,0.034572 -0.14552,0 -0.205052,-0.015557 -0.132291,-0.034572 z"
         id="path2841" />
      <path
         style="fill:#ffffff;fill-opacity:1;stroke-width:0.0755952"
         d="m 24.579398,4.2548664 c 0.07355,-0.019167 0.175606,-0.017906 0.226786,0.0028 0.05118,0.020707 -0.009,0.036389 -0.13373,0.034848 -0.124733,-0.00154 -0.166608,-0.018483 -0.09306,-0.03765 z"
         id="path2839" />
      <path
         style="fill:#ffffff;fill-opacity:1;stroke-width:0.0755952"
         d="m 22.48874,16.691041 c 0.02183,-0.03532 0.07136,-0.04466 0.110068,-0.02074 0.09891,0.06113 0.08777,0.08497 -0.0397,0.08497 -0.06054,0 -0.0922,-0.0289 -0.07037,-0.06423 z m 12.886409,-6.380265 c 0.0036,-0.08806 0.02154,-0.105977 0.04567,-0.04567 0.02184,0.05457 0.01915,0.119771 -0.006,0.144891 -0.02512,0.02512 -0.04299,-0.01953 -0.0397,-0.09922 z M 23.878703,5.6527881 c 0,-0.033229 0.161585,-0.05773 0.359078,-0.054448 0.395244,0.00657 0.363269,0.043269 -0.07559,0.086767 -0.155916,0.015453 -0.283483,9.102e-4 -0.283483,-0.032319 z m 5.841172,-1.3223265 c 0.07355,-0.019167 0.175605,-0.017906 0.226786,0.0028 0.05118,0.020707 -0.009,0.036389 -0.133731,0.034848 -0.124732,-0.00154 -0.166607,-0.018483 -0.09306,-0.03765 z m -5.822273,-0.077354 c 0.114338,-0.017321 0.301436,-0.017321 0.415774,0 0.114338,0.017321 0.02079,0.031492 -0.207887,0.031492 -0.228675,0 -0.322225,-0.014171 -0.207887,-0.031492 z"
         id="path2837" />
      <path
         style="fill:#ffffff;fill-opacity:1;stroke-width:0.0755952"
         d="m 35.381117,10.581659 c 0,-0.103944 0.01716,-0.146466 0.03813,-0.09449 0.02097,0.05197 0.02097,0.137016 0,0.188988 -0.02097,0.05197 -0.03813,0.0094 -0.03813,-0.09449 z M 24.653555,5.6158579 c 0.07276,-0.019014 0.191823,-0.019014 0.264583,0 0.07276,0.019014 0.01323,0.034571 -0.132292,0.034571 -0.14552,0 -0.205052,-0.015557 -0.132291,-0.034571 z m 4.688344,-1.2853963 c 0.07355,-0.019167 0.175605,-0.017906 0.226785,0.0028 0.05118,0.020707 -0.009,0.036389 -0.13373,0.034848 -0.124732,-0.00154 -0.166607,-0.018483 -0.09305,-0.03765 z m -5.89643,-0.075595 c 0.07355,-0.019167 0.175606,-0.017906 0.226786,0.0028 0.05118,0.020707 -0.009,0.036389 -0.13373,0.034848 -0.124732,-0.00154 -0.166608,-0.018483 -0.09306,-0.03765 z"
         id="path2835" />
      <path
         style="fill:#ffffff;fill-opacity:1;stroke-width:0.0755952"
         d="m 33.712054,33.216136 c 0.0036,-0.08807 0.02154,-0.105977 0.04567,-0.04567 0.02184,0.05457 0.01915,0.119771 -0.006,0.144891 -0.02512,0.02512 -0.04299,-0.01953 -0.0397,-0.09922 z m 0.302381,-22.602979 c 0.0036,-0.08806 0.02154,-0.105977 0.04567,-0.04567 0.02184,0.05457 0.01915,0.119771 -0.006,0.144891 -0.02512,0.02512 -0.04299,-0.01953 -0.0397,-0.09922 z M 33.661106,6.1026403 33.517098,5.932551 33.687187,6.0765591 c 0.159841,0.1353319 0.204503,0.1961706 0.144008,0.1961706 -0.01434,0 -0.09089,-0.07654 -0.170089,-0.1700894 z m -8.55398,-0.4867824 c 0.07276,-0.019014 0.191823,-0.019014 0.264584,0 0.07276,0.019014 0.01323,0.034571 -0.132292,0.034571 -0.145521,0 -0.205052,-0.015557 -0.132292,-0.034571 z m 3.779763,-1.2851192 c 0.07276,-0.019014 0.191823,-0.019014 0.264583,0 0.07276,0.019014 0.01323,0.034571 -0.132292,0.034571 -0.145521,0 -0.205052,-0.015557 -0.132291,-0.034571 z m -5.89643,-0.075595 c 0.07276,-0.019014 0.191823,-0.019014 0.264584,0 0.07276,0.019014 0.01323,0.034572 -0.132292,0.034572 -0.145521,0 -0.205052,-0.015557 -0.132292,-0.034572 z"
         id="path2833" />
      <path
         style="fill:#ffffff;fill-opacity:1;stroke-width:0.0755952"
         d="m 32.935959,34.040141 c 0.05457,-0.02184 0.119772,-0.01915 0.144891,0.006 0.02512,0.02512 -0.01953,0.04299 -0.09922,0.03971 -0.08806,-0.0036 -0.105977,-0.02154 -0.04567,-0.04567 z m 1.078476,-23.65377 c 0.0036,-0.08806 0.02154,-0.105977 0.04567,-0.04567 0.02184,0.05457 0.01915,0.119771 -0.006,0.144891 -0.02512,0.02512 -0.04299,-0.01953 -0.0397,-0.09922 z M 25.560698,5.6158579 c 0.07276,-0.019014 0.191823,-0.019014 0.264583,0 0.07276,0.019014 0.01323,0.034571 -0.132292,0.034571 -0.14552,0 -0.205052,-0.015557 -0.132291,-0.034571 z m 2.949653,-1.2853963 c 0.07355,-0.019167 0.175605,-0.017906 0.226786,0.0028 0.05118,0.020707 -0.009,0.036389 -0.133731,0.034848 -0.124732,-0.00154 -0.166607,-0.018483 -0.09305,-0.03765 z m -5.896429,-0.075595 c 0.07355,-0.019167 0.175605,-0.017906 0.226785,0.0028 0.05118,0.020707 -0.009,0.036389 -0.13373,0.034848 -0.124732,-0.00154 -0.166607,-0.018483 -0.09305,-0.03765 z"
         id="path2831" />
      <path
         style="fill:#ffffff;fill-opacity:1;stroke-width:0.0755952"
         d="M 9.9306237,35.524527 C 6.3892993,35.247574 4.4548598,33.254148 4.0759804,29.49136 4.0313212,29.047832 3.9971533,26.834932 3.9971533,24.386078 v -4.32242 L 6.1705166,16.352135 8.34388,12.640612 11.493725,9.7023553 14.64357,6.7640988 17.427952,5.7483554 c 1.53141,-0.5586589 3.056525,-1.1240841 3.389144,-1.2565007 l 0.604762,-0.2407573 4.353752,0.061234 c 4.997304,0.070286 4.993856,0.069873 6.418571,0.7684847 0.688818,0.3377635 0.884906,0.4800676 1.483297,1.0764529 0.590954,0.5889732 0.738613,0.7895757 1.032708,1.4029851 0.416099,0.8678769 0.572888,1.4832098 0.64998,2.5509069 0.04991,0.691277 -0.0679,2.486326 -0.799911,12.187761 l -0.858445,11.377085 -0.181748,0.162075 c -0.121059,0.107954 -0.328598,0.177769 -0.621523,0.209075 -0.241876,0.02585 -5.202276,0.368717 -11.02311,0.761926 -5.820834,0.393209 -10.719406,0.728357 -10.885715,0.744774 -0.16631,0.01642 -0.6429,0.0032 -1.0590903,-0.02933 z M 9.8179873,34.104404 c 0,-0.03463 -0.7100769,-1.723882 -1.5779487,-3.753883 -1.5176135,-3.549782 -1.5822803,-3.68395 -1.6912292,-3.508903 -0.062304,0.100104 -0.3581977,0.633309 -0.6575411,1.184901 l -0.5442607,1.002892 0.080302,0.660441 c 0.3043632,2.50323 1.4360042,3.883476 3.5495363,4.329317 0.7644344,0.161254 0.8411416,0.169028 0.8411416,0.08524 z m 3.9475187,-0.506809 c 3.370417,-0.843733 6.808085,-2.75916 10.170405,-5.666827 0.33655,-0.291042 0.588925,-0.551253 0.560833,-0.578248 -0.08196,-0.07876 -9.553494,-3.095649 -9.634265,-3.068725 -0.06911,0.02304 -2.919296,9.349919 -2.925101,9.57204 -0.0038,0.143721 0.515366,0.07039 1.828128,-0.25824 z m 11.02034,-0.301813 c 3.471712,-0.227226 6.394483,-0.421729 6.495047,-0.43223 0.150967,-0.01576 -0.277342,-0.426686 -2.456846,-2.357106 -1.451829,-1.285907 -2.69695,-2.386201 -2.766937,-2.445098 -0.113974,-0.09591 -0.222134,-0.02381 -1.036759,0.691108 -2.297082,2.015942 -4.309305,3.431621 -6.422438,4.518444 -0.480962,0.247366 -0.891035,0.466316 -0.911274,0.486555 -0.02024,0.02024 0.148558,0.0176 0.375104,-0.0059 0.226545,-0.02347 3.252392,-0.228578 6.724103,-0.455804 z M 12.118128,28.581668 c 0.692118,-2.302958 1.24864,-4.20965 1.236718,-4.237094 -0.01192,-0.02744 -1.110251,0.197373 -2.440728,0.499595 -1.3304759,0.302221 -2.6008063,0.587628 -2.8229559,0.63424 -0.3372059,0.07075 -0.397837,0.107965 -0.3671436,0.225338 0.095772,0.366231 3.0440595,7.165237 3.0868365,7.118509 0.02688,-0.02937 0.615156,-1.93763 1.307273,-4.240588 z m 20.378457,3.298952 c 1.4e-5,-0.01039 0.237746,-3.1461 0.528296,-6.968233 0.29055,-3.822135 0.513804,-6.963802 0.496122,-6.981484 -0.01768,-0.01768 -0.169396,0.240818 -0.33714,0.574446 -1.05999,2.108214 -2.944083,4.773647 -5.025004,7.108887 -0.420737,0.472158 -0.870167,0.982426 -0.998733,1.133929 l -0.233756,0.27546 2.728399,2.435442 c 2.371332,2.116714 2.841696,2.517518 2.841816,2.421553 z M 5.7337396,25.597136 C 6.0290419,25.04328 6.0308023,25.060782 5.5823245,24.091807 l -0.2175188,-0.469968 -0.00347,1.270682 c -0.00191,0.698875 0.022044,1.254083 0.053228,1.233795 0.031183,-0.02029 0.174812,-0.258418 0.3191759,-0.52918 z M 23.812884,21.353831 c -0.649331,-2.598669 -1.20406,-4.716281 -1.232731,-4.705804 -0.02867,0.01048 -1.606833,1.464325 -3.507025,3.230773 l -3.454896,3.211725 0.369372,0.113996 c 0.203155,0.0627 2.274373,0.732578 4.602706,1.488622 2.328334,0.756043 4.271548,1.377081 4.318255,1.380084 0.05019,0.0032 -0.397922,-1.926913 -1.095681,-4.719396 z m 4.129759,2.381401 c 1.458054,-1.744326 2.635152,-3.410842 3.561003,-5.041612 0.591451,-1.041767 1.594466,-3.232566 1.513066,-3.30486 -0.02642,-0.02346 -9.162229,0.559526 -9.186463,0.586221 -0.0059,0.0065 0.538425,2.184045 1.209524,4.839088 l 1.220181,4.82735 0.446414,-0.480623 c 0.245527,-0.264343 0.801851,-0.905847 1.236275,-1.425564 z M 10.498345,23.584376 c 1.683884,-0.377764 3.168596,-0.71575 3.299359,-0.751079 0.164346,-0.0444 1.531324,-1.26942 4.427359,-3.967576 l 4.189605,-3.903341 1.082243,-3.456581 c 0.595233,-1.9011195 1.09604,-3.4930306 1.112904,-3.5375802 0.03589,-0.09482 -2.982592,-2.2536649 -3.15016,-2.2530205 -0.06237,2.419e-4 -1.45149,0.4914746 -3.086944,1.0916326 l -2.97355,1.0911966 -3.025183,2.8087355 -3.0251827,2.808735 -1.9579571,3.369129 -1.9579572,3.36913 0.8507375,2.046555 c 0.7564442,1.819722 0.867495,2.042364 1.001928,2.008732 0.083155,-0.0208 1.5289139,-0.346903 3.2127985,-0.724668 z M 28.527811,14.35183 c 1.995715,-0.129481 3.644596,-0.250178 3.66418,-0.268215 0.01958,-0.01804 3.78e-4,-0.05646 -0.04268,-0.08538 -0.04306,-0.02892 -1.485221,-1.209194 -3.204806,-2.622825 -1.719587,-1.4136313 -3.145068,-2.5702385 -3.167738,-2.5702385 -0.04721,0 -1.820704,5.6172405 -1.82177,5.7701545 -5.29e-4,0.07766 0.106719,0.09044 0.47177,0.05622 0.259859,-0.02436 2.105328,-0.150233 4.101042,-0.279713 z m 5.28511,-1.615707 C 34.32834,10.16087 33.980803,8.2698976 32.770272,7.0629932 32.233784,6.5281137 31.379792,6.0649421 30.559367,5.8638865 L 30.029029,5.7339207 28.278975,6.7009932 c -0.96253,0.5318899 -1.725527,0.9908351 -1.69555,1.0198781 0.43783,0.424181 7.01652,5.7176677 7.055026,5.6767667 0.02939,-0.03121 0.107898,-0.328896 0.17447,-0.661515 z M 26.311337,5.6483055 c -0.568767,-0.031603 -1.3743,-0.048612 -1.790074,-0.037798 l -0.755952,0.019662 0.818847,0.5761157 0.818847,0.5761157 0.971227,-0.5383181 0.971226,-0.538318 z"
         id="path2829" />
    </g>
  </g>
</svg>
