<?xml version="1.0" encoding="UTF-8" standalone="no"?>
<svg
   xmlns:dc="http://purl.org/dc/elements/1.1/"
   xmlns:cc="http://creativecommons.org/ns#"
   xmlns:rdf="http://www.w3.org/1999/02/22-rdf-syntax-ns#"
   xmlns:svg="http://www.w3.org/2000/svg"
   xmlns="http://www.w3.org/2000/svg"
   xmlns:sodipodi="http://sodipodi.sourceforge.net/DTD/sodipodi-0.dtd"
   xmlns:inkscape="http://www.inkscape.org/namespaces/inkscape"
   width="40mm"
   height="40mm"
   viewBox="0 0 40 40"
   version="1.1"
   id="svg8"
   inkscape:version="1.0.2-2 (e86c870879, 2021-01-15)"
   sodipodi:docname="seaborn_box.svg"
   inkscape:export-filename="C:\Users\chops\Pictures\work_images\c_sharp_2.png"
   inkscape:export-xdpi="5.3492537"
   inkscape:export-ydpi="5.3492537">
  <defs
     id="defs2">
    <style
       type="text/css"
       id="style889">*{stroke-linecap:butt;stroke-linejoin:round;}</style>
    <path
       d="M -6.223729 -74.826006  L -6.223729 -2.349629  L -3.783051 -2.349629  L -1.342373 -2.349629  L 1.098305 -2.349629  L 3.538983 -2.349629  L 5.979661 -2.349629  L 8.420339 -2.349629  L 10.861017 -2.349629  L 13.301695 -2.349629  L 15.742373 -2.349629  L 18.183051 -2.349629  L 20.623729 -2.349629  L 23.064407 -2.349629  L 25.505085 -2.349629  L 27.945763 -2.349629  L 30.386441 -2.349629  L 32.827119 -2.349629  L 35.267797 -2.349629  L 37.708475 -2.349629  L 40.149153 -2.349629  L 42.589831 -2.349629  L 45.030508 -2.349629  L 47.471186 -2.349629  L 49.911864 -2.349629  L 52.352542 -2.349629  L 54.79322 -2.349629  L 57.233898 -2.349629  L 59.674576 -2.349629  L 62.115254 -2.349629  L 64.555932 -2.349629  L 66.99661 -2.349629  L 69.437288 -2.349629  L 71.877966 -2.349629  L 74.318644 -2.349629  L 76.759322 -2.349629  L 79.2 -2.349629  L 81.640678 -2.349629  L 84.081356 -2.349629  L 86.522034 -2.349629  L 88.962712 -2.349629  L 91.40339 -2.349629  L 93.844068 -2.349629  L 96.284746 -2.349629  L 98.725424 -2.349629  L 101.166102 -2.349629  L 103.60678 -2.349629  L 106.047458 -2.349629  L 108.488136 -2.349629  L 110.928814 -2.349629  L 113.369492 -2.349629  L 115.810169 -2.349629  L 118.250847 -2.349629  L 120.691525 -2.349629  L 123.132203 -2.349629  L 125.572881 -2.349629  L 128.013559 -2.349629  L 130.454237 -2.349629  L 132.894915 -2.349629  L 135.335593 -2.349629  L 137.776271 -2.349629  L 140.216949 -2.349629  L 142.657627 -2.349629  L 145.098305 -2.349629  L 147.538983 -2.349629  L 149.979661 -2.349629  L 152.420339 -2.349629  L 154.861017 -2.349629  L 157.301695 -2.349629  L 159.742373 -2.349629  L 162.183051 -2.349629  L 164.623729 -2.349629  L 164.623729 -69.426141  L 164.623729 -69.426141  L 162.183051 -69.590539  L 159.742373 -69.778833  L 157.301695 -69.993524  L 154.861017 -70.237204  L 152.420339 -70.512521  L 149.979661 -70.822152  L 147.538983 -71.168755  L 145.098305 -71.554926  L 142.657627 -71.983146  L 140.216949 -72.45572  L 137.776271 -72.974719  L 135.335593 -73.54191  L 132.894915 -74.158688  L 130.454237 -74.826006  L 128.013559 -75.544306  L 125.572881 -76.313452  L 123.132203 -77.132666  L 120.691525 -78.000468  L 118.250847 -78.914632  L 115.810169 -79.872145  L 113.369492 -80.869181  L 110.928814 -81.901088  L 108.488136 -82.96239  L 106.047458 -84.046814  L 103.60678 -85.147317  L 101.166102 -86.256154  L 98.725424 -87.364946  L 96.284746 -88.464775  L 93.844068 -89.546293  L 91.40339 -90.599847  L 88.962712 -91.615617  L 86.522034 -92.583765  L 84.081356 -93.494591  L 81.640678 -94.338691  L 79.2 -95.10712  L 76.759322 -95.791546  L 74.318644 -96.384406  L 71.877966 -96.879037  L 69.437288 -97.269806  L 66.99661 -97.552216  L 64.555932 -97.72299  L 62.115254 -97.780138  L 59.674576 -97.72299  L 57.233898 -97.552216  L 54.79322 -97.269806  L 52.352542 -96.879037  L 49.911864 -96.384406  L 47.471186 -95.791546  L 45.030508 -95.10712  L 42.589831 -94.338691  L 40.149153 -93.494591  L 37.708475 -92.583765  L 35.267797 -91.615617  L 32.827119 -90.599847  L 30.386441 -89.546293  L 27.945763 -88.464775  L 25.505085 -87.364946  L 23.064407 -86.256154  L 20.623729 -85.147317  L 18.183051 -84.046814  L 15.742373 -82.96239  L 13.301695 -81.901088  L 10.861017 -80.869181  L 8.420339 -79.872145  L 5.979661 -78.914632  L 3.538983 -78.000468  L 1.098305 -77.132666  L -1.342373 -76.313452  L -3.783051 -75.544306  L -6.223729 -74.826006  z "
       id="m91af8aa290" />
    <path
       d="M -6.223729 -98.447737  L -6.223729 -76.046345  L -3.783051 -76.764645  L -1.342373 -77.533791  L 1.098305 -78.353005  L 3.538983 -79.220807  L 5.979661 -80.134971  L 8.420339 -81.092484  L 10.861017 -82.08952  L 13.301695 -83.121427  L 15.742373 -84.182729  L 18.183051 -85.267153  L 20.623729 -86.367656  L 23.064407 -87.476493  L 25.505085 -88.585285  L 27.945763 -89.685114  L 30.386441 -90.766632  L 32.827119 -91.820186  L 35.267797 -92.835956  L 37.708475 -93.804104  L 40.149153 -94.71493  L 42.589831 -95.55903  L 45.030508 -96.327459  L 47.471186 -97.011885  L 49.911864 -97.604745  L 52.352542 -98.099375  L 54.79322 -98.490145  L 57.233898 -98.772555  L 59.674576 -98.943329  L 62.115254 -99.000477  L 64.555932 -98.943329  L 66.99661 -98.772555  L 69.437288 -98.490145  L 71.877966 -98.099375  L 74.318644 -97.604745  L 76.759322 -97.011885  L 79.2 -96.327459  L 81.640678 -95.55903  L 84.081356 -94.71493  L 86.522034 -93.804104  L 88.962712 -92.835956  L 91.40339 -91.820186  L 93.844068 -90.766632  L 96.284746 -89.685114  L 98.725424 -88.585285  L 101.166102 -87.476493  L 103.60678 -86.367656  L 106.047458 -85.267153  L 108.488136 -84.182729  L 110.928814 -83.121427  L 113.369492 -82.08952  L 115.810169 -81.092484  L 118.250847 -80.134971  L 120.691525 -79.220807  L 123.132203 -78.353005  L 125.572881 -77.533791  L 128.013559 -76.764645  L 130.454237 -76.046345  L 132.894915 -75.379027  L 135.335593 -74.762249  L 137.776271 -74.195058  L 140.216949 -73.676059  L 142.657627 -73.203485  L 145.098305 -72.775265  L 147.538983 -72.389094  L 149.979661 -72.042491  L 152.420339 -71.73286  L 154.861017 -71.457543  L 157.301695 -71.213863  L 159.742373 -70.999172  L 162.183051 -70.810878  L 164.623729 -70.64648  L 164.623729 -105.601588  L 164.623729 -105.601588  L 162.183051 -106.420801  L 159.742373 -107.288603  L 157.301695 -108.202767  L 154.861017 -109.160281  L 152.420339 -110.157317  L 149.979661 -111.189223  L 147.538983 -112.250526  L 145.098305 -113.334949  L 142.657627 -114.435453  L 140.216949 -115.54429  L 137.776271 -116.653082  L 135.335593 -117.752911  L 132.894915 -118.834429  L 130.454237 -119.887982  L 128.013559 -120.903752  L 125.572881 -121.871901  L 123.132203 -122.782727  L 120.691525 -123.626827  L 118.250847 -124.395255  L 115.810169 -125.079682  L 113.369492 -125.672541  L 110.928814 -126.167172  L 108.488136 -126.557941  L 106.047458 -126.840351  L 103.60678 -127.011126  L 101.166102 -127.068273  L 98.725424 -127.011126  L 96.284746 -126.840351  L 93.844068 -126.557941  L 91.40339 -126.167172  L 88.962712 -125.672541  L 86.522034 -125.079682  L 84.081356 -124.395255  L 81.640678 -123.626827  L 79.2 -122.782727  L 76.759322 -121.871901  L 74.318644 -120.903752  L 71.877966 -119.887982  L 69.437288 -118.834429  L 66.99661 -117.752911  L 64.555932 -116.653082  L 62.115254 -115.54429  L 59.674576 -114.435453  L 57.233898 -113.334949  L 54.79322 -112.250526  L 52.352542 -111.189223  L 49.911864 -110.157317  L 47.471186 -109.160281  L 45.030508 -108.202767  L 42.589831 -107.288603  L 40.149153 -106.420801  L 37.708475 -105.601588  L 35.267797 -104.832442  L 32.827119 -104.114141  L 30.386441 -103.446823  L 27.945763 -102.830046  L 25.505085 -102.262855  L 23.064407 -101.743856  L 20.623729 -101.271281  L 18.183051 -100.843062  L 15.742373 -100.45689  L 13.301695 -100.110287  L 10.861017 -99.800657  L 8.420339 -99.525339  L 5.979661 -99.28166  L 3.538983 -99.066969  L 1.098305 -98.878675  L -1.342373 -98.714277  L -3.783051 -98.571384  L -6.223729 -98.447737  z "
       id="m9c8b484f24" />
    <path
       d="M 32 35.703125  Q 30.5 38.59375 28 40.296875  Q 25.5 42 21.90625 42  Q 20.203125 42 18.453125 41.59375  Q 16.703125 41.203125 15.296875 40.34375  Q 13.90625 39.5 13.046875 38.203125  Q 12.203125 36.90625 12.203125 35  Q 12.203125 31.703125 14.5 30.203125  Q 16.796875 28.703125 21.40625 27.59375  L 28.09375 26  Q 33 24.90625 36.25 21.546875  Q 39.5 18.203125 39.5 13.203125  Q 39.5 9.40625 37.953125 6.65625  Q 36.40625 3.90625 33.84375 2.15625  Q 31.296875 0.40625 28 -0.390625  Q 24.703125 -1.203125 21.296875 -1.203125  Q 15.90625 -1.203125 11.25 0.84375  Q 6.59375 2.90625 3.296875 7.90625  L 9 11.796875  Q 11 8.59375 14.046875 6.6875  Q 17.09375 4.796875 21.296875 4.796875  Q 23.296875 4.796875 25.296875 5.25  Q 27.296875 5.703125 28.84375 6.640625  Q 30.40625 7.59375 31.34375 9.09375  Q 32.296875 10.59375 32.296875 12.59375  Q 32.296875 16.09375 29.6875 17.640625  Q 27.09375 19.203125 23.40625 20.09375  L 17 21.59375  Q 15.796875 21.90625 13.75 22.59375  Q 11.703125 23.296875 9.75 24.6875  Q 7.796875 26.09375 6.390625 28.34375  Q 5 30.59375 5 33.90625  Q 5 37.5 6.453125 40.203125  Q 7.90625 42.90625 10.34375 44.59375  Q 12.796875 46.296875 15.890625 47.140625  Q 19 48 22.296875 48  Q 27.203125 48 31.390625 46.09375  Q 35.59375 44.203125 37.90625 39.59375  z "
       id="Avenir-Book-115" />
    <path
       d="M 43.59375 27  Q 43.59375 33.703125 39.59375 37.84375  Q 35.59375 42 28.40625 42  Q 25.203125 42 22.203125 40.75  Q 19.203125 39.5 16.953125 37.390625  Q 14.703125 35.296875 13.34375 32.59375  Q 12 29.90625 12 27  z M 11.796875 21.59375  Q 12.09375 18.09375 13.5 15  Q 14.90625 11.90625 17.203125 9.65625  Q 19.5 7.40625 22.5 6.09375  Q 25.5 4.796875 29 4.796875  Q 34.296875 4.796875 38.140625 7.25  Q 42 9.703125 44 12.90625  L 49.09375 8.703125  Q 44.90625 3.40625 39.84375 1.09375  Q 34.796875 -1.203125 29 -1.203125  Q 23.796875 -1.203125 19.34375 0.640625  Q 14.90625 2.5 11.703125 5.796875  Q 8.5 9.09375 6.640625 13.59375  Q 4.796875 18.09375 4.796875 23.40625  Q 4.796875 28.703125 6.59375 33.203125  Q 8.40625 37.703125 11.59375 41  Q 14.796875 44.296875 19.09375 46.140625  Q 23.40625 48 28.40625 48  Q 33.703125 48 37.890625 46.09375  Q 42.09375 44.203125 44.9375 41.046875  Q 47.796875 37.90625 49.296875 33.65625  Q 50.796875 29.40625 50.796875 24.59375  L 50.796875 21.59375  z "
       id="Avenir-Book-101" />
    <path
       d="M 33.796875 23.296875  Q 31.296875 23.296875 27.546875 23.046875  Q 23.796875 22.796875 20.34375 21.84375  Q 16.90625 20.90625 14.453125 18.90625  Q 12 16.90625 12 13.40625  Q 12 11.09375 12.953125 9.4375  Q 13.90625 7.796875 15.5 6.75  Q 17.09375 5.703125 19.046875 5.25  Q 21 4.796875 23 4.796875  Q 26.59375 4.796875 29.25 6  Q 31.90625 7.203125 33.703125 9.25  Q 35.5 11.296875 36.34375 14.046875  Q 37.203125 16.796875 37.203125 19.90625  L 37.203125 23.296875  z M 37.203125 28.703125  L 37.203125 29.90625  Q 37.203125 42 25.203125 42  Q 17 42 10.90625 36.5  L 6.90625 41.203125  Q 13.5 48 26.703125 48  Q 30.09375 48 33.25 47  Q 36.40625 46 38.703125 43.953125  Q 41 41.90625 42.390625 38.796875  Q 43.796875 35.703125 43.796875 31.40625  L 43.796875 10.5  Q 43.796875 7.796875 44.046875 4.84375  Q 44.296875 1.90625 44.59375 0  L 38.203125 0  Q 37.90625 1.703125 37.75 3.703125  Q 37.59375 5.703125 37.59375 7.59375  L 37.40625 7.59375  Q 34.5 2.90625 30.546875 0.84375  Q 26.59375 -1.203125 20.90625 -1.203125  Q 17.796875 -1.203125 14.890625 -0.34375  Q 12 0.5 9.75 2.25  Q 7.5 4 6.140625 6.546875  Q 4.796875 9.09375 4.796875 12.5  Q 4.796875 18.203125 7.75 21.453125  Q 10.703125 24.703125 15.140625 26.296875  Q 19.59375 27.90625 24.640625 28.296875  Q 29.703125 28.703125 33.90625 28.703125  z "
       id="Avenir-Book-97" />
    <path
       d="M 49.90625 23.40625  Q 49.90625 27.296875 48.65625 30.6875  Q 47.40625 34.09375 45.09375 36.59375  Q 42.796875 39.09375 39.546875 40.546875  Q 36.296875 42 32.203125 42  Q 28.09375 42 24.6875 40.546875  Q 21.296875 39.09375 18.796875 36.59375  Q 16.296875 34.09375 14.890625 30.6875  Q 13.5 27.296875 13.5 23.40625  Q 13.5 19.5 14.890625 16.09375  Q 16.296875 12.703125 18.796875 10.203125  Q 21.296875 7.703125 24.6875 6.25  Q 28.09375 4.796875 32.203125 4.796875  Q 36.296875 4.796875 39.546875 6.25  Q 42.796875 7.703125 45.09375 10.203125  Q 47.40625 12.703125 48.65625 16.09375  Q 49.90625 19.5 49.90625 23.40625  z M 7.203125 75.59375  L 13.796875 75.59375  L 13.796875 39  L 14 39  Q 15.59375 41.40625 17.796875 43.09375  Q 20 44.796875 22.390625 45.890625  Q 24.796875 47 27.34375 47.5  Q 29.90625 48 32.203125 48  Q 37.703125 48 42.25 46.140625  Q 46.796875 44.296875 50.09375 41  Q 53.40625 37.703125 55.25 33.203125  Q 57.09375 28.703125 57.09375 23.40625  Q 57.09375 18.09375 55.25 13.59375  Q 53.40625 9.09375 50.09375 5.796875  Q 46.796875 2.5 42.25 0.640625  Q 37.703125 -1.203125 32.203125 -1.203125  Q 29.90625 -1.203125 27.34375 -0.703125  Q 24.796875 -0.203125 22.390625 0.890625  Q 20 2 17.796875 3.703125  Q 15.59375 5.40625 14 7.796875  L 13.796875 7.796875  L 13.796875 0  L 7.203125 0  z "
       id="Avenir-Book-98" />
    <path
       d="M 47.296875 23.40625  Q 47.296875 27.296875 46.046875 30.6875  Q 44.796875 34.09375 42.5 36.59375  Q 40.203125 39.09375 36.953125 40.546875  Q 33.703125 42 29.59375 42  Q 25.5 42 22.25 40.546875  Q 19 39.09375 16.75 36.59375  Q 14.5 34.09375 13.25 30.6875  Q 12 27.296875 12 23.40625  Q 12 19.5 13.25 16.09375  Q 14.5 12.703125 16.75 10.203125  Q 19 7.703125 22.25 6.25  Q 25.5 4.796875 29.59375 4.796875  Q 33.703125 4.796875 36.953125 6.25  Q 40.203125 7.703125 42.5 10.203125  Q 44.796875 12.703125 46.046875 16.09375  Q 47.296875 19.5 47.296875 23.40625  z M 54.5 23.40625  Q 54.5 18.09375 52.640625 13.59375  Q 50.796875 9.09375 47.5 5.796875  Q 44.203125 2.5 39.640625 0.640625  Q 35.09375 -1.203125 29.59375 -1.203125  Q 24.203125 -1.203125 19.640625 0.640625  Q 15.09375 2.5 11.796875 5.796875  Q 8.5 9.09375 6.640625 13.59375  Q 4.796875 18.09375 4.796875 23.40625  Q 4.796875 28.703125 6.640625 33.203125  Q 8.5 37.703125 11.796875 41  Q 15.09375 44.296875 19.640625 46.140625  Q 24.203125 48 29.59375 48  Q 35.09375 48 39.640625 46.140625  Q 44.203125 44.296875 47.5 41  Q 50.796875 37.703125 52.640625 33.203125  Q 54.5 28.703125 54.5 23.40625  z "
       id="Avenir-Book-111" />
    <path
       d="M 7.90625 32.203125  Q 7.90625 35.296875 7.75 38.5  Q 7.59375 41.703125 7.5 46.796875  L 14 46.796875  L 14 38.09375  L 14.203125 38.09375  Q 14.90625 40 16.203125 41.75  Q 17.5 43.5 19.34375 44.890625  Q 21.203125 46.296875 23.640625 47.140625  Q 26.09375 48 29.203125 48  Q 32 48 34.09375 47.40625  L 32.796875 40.90625  Q 31.5 41.40625 29 41.40625  Q 25.203125 41.40625 22.5 39.953125  Q 19.796875 38.5 18 36.25  Q 16.203125 34 15.34375 31.390625  Q 14.5 28.796875 14.5 26.40625  L 14.5 0  L 7.90625 0  z "
       id="Avenir-Book-114" />
    <path
       d="M 13.5 46.796875  Q 13.703125 44.90625 13.75 43.046875  Q 13.796875 41.203125 13.796875 39.296875  L 14 39.296875  Q 15.09375 41.203125 16.796875 42.796875  Q 18.5 44.40625 20.59375 45.546875  Q 22.703125 46.703125 25.046875 47.34375  Q 27.40625 48 29.703125 48  Q 38.703125 48 43 43.25  Q 47.296875 38.5 47.296875 29.703125  L 47.296875 0  L 40.703125 0  L 40.703125 25.90625  Q 40.703125 33.703125 38 37.84375  Q 35.296875 42 28 42  Q 27.5 42 25.203125 41.59375  Q 22.90625 41.203125 20.34375 39.390625  Q 17.796875 37.59375 15.796875 34  Q 13.796875 30.40625 13.796875 24  L 13.796875 0  L 7.203125 0  L 7.203125 36.5  Q 7.203125 38.40625 7.046875 41.296875  Q 6.90625 44.203125 6.703125 46.796875  z "
       id="Avenir-Book-110" />
    <clipPath
       id="p93517fecb0">
      <rect
         height="136.677966"
         width="144"
         x="7.2"
         y="10.861017"
         id="rect1761" />
    </clipPath>
    <clipPath
       id="p41adfa82e1">
      <path
         d="M 79.2 142.657627  C 96.029159 142.657627 112.171306 135.971331 124.071318 124.071318  C 135.971331 112.171306 142.657627 96.029159 142.657627 79.2  C 142.657627 62.370841 135.971331 46.228694 124.071318 34.328682  C 112.171306 22.428669 96.029159 15.742373 79.2 15.742373  C 62.370841 15.742373 46.228694 22.428669 34.328682 34.328682  C 22.428669 46.228694 15.742373 62.370841 15.742373 79.2  C 15.742373 96.029159 22.428669 112.171306 34.328682 124.071318  C 46.228694 135.971331 62.370841 142.657627 79.2 142.657627  z "
         id="path1764" />
    </clipPath>
    <clipPath
       id="p40fec8cee6">
      <path
         d="M -6.223729 -11.105085  L -6.223729 70.966299  L -3.783051 70.842652  L -1.342373 70.699759  L 1.098305 70.535361  L 3.538983 70.347067  L 5.979661 70.132376  L 8.420339 69.888697  L 10.861017 69.613379  L 13.301695 69.303749  L 15.742373 68.957146  L 18.183051 68.570974  L 20.623729 68.142755  L 23.064407 67.67018  L 25.505085 67.151181  L 27.945763 66.58399  L 30.386441 65.967213  L 32.827119 65.299895  L 35.267797 64.581594  L 37.708475 63.812448  L 40.149153 62.993235  L 42.589831 62.125433  L 45.030508 61.211269  L 47.471186 60.253755  L 49.911864 59.256719  L 52.352542 58.224813  L 54.79322 57.16351  L 57.233898 56.079087  L 59.674576 54.978583  L 62.115254 53.869746  L 64.555932 52.760954  L 66.99661 51.661125  L 69.437288 50.579607  L 71.877966 49.526054  L 74.318644 48.510284  L 76.759322 47.542135  L 79.2 46.631309  L 81.640678 45.787209  L 84.081356 45.018781  L 86.522034 44.334354  L 88.962712 43.741495  L 91.40339 43.246864  L 93.844068 42.856095  L 96.284746 42.573685  L 98.725424 42.40291  L 101.166102 42.345763  L 103.60678 42.40291  L 106.047458 42.573685  L 108.488136 42.856095  L 110.928814 43.246864  L 113.369492 43.741495  L 115.810169 44.334354  L 118.250847 45.018781  L 120.691525 45.787209  L 123.132203 46.631309  L 125.572881 47.542135  L 128.013559 48.510284  L 130.454237 49.526054  L 132.894915 50.579607  L 135.335593 51.661125  L 137.776271 52.760954  L 140.216949 53.869746  L 142.657627 54.978583  L 145.098305 56.079087  L 147.538983 57.16351  L 149.979661 58.224813  L 152.420339 59.256719  L 154.861017 60.253755  L 157.301695 61.211269  L 159.742373 62.125433  L 162.183051 62.993235  L 164.623729 63.812448  L 164.623729 -11.105085  L 164.623729 -11.105085  L 162.183051 -11.105085  L 159.742373 -11.105085  L 157.301695 -11.105085  L 154.861017 -11.105085  L 152.420339 -11.105085  L 149.979661 -11.105085  L 147.538983 -11.105085  L 145.098305 -11.105085  L 142.657627 -11.105085  L 140.216949 -11.105085  L 137.776271 -11.105085  L 135.335593 -11.105085  L 132.894915 -11.105085  L 130.454237 -11.105085  L 128.013559 -11.105085  L 125.572881 -11.105085  L 123.132203 -11.105085  L 120.691525 -11.105085  L 118.250847 -11.105085  L 115.810169 -11.105085  L 113.369492 -11.105085  L 110.928814 -11.105085  L 108.488136 -11.105085  L 106.047458 -11.105085  L 103.60678 -11.105085  L 101.166102 -11.105085  L 98.725424 -11.105085  L 96.284746 -11.105085  L 93.844068 -11.105085  L 91.40339 -11.105085  L 88.962712 -11.105085  L 86.522034 -11.105085  L 84.081356 -11.105085  L 81.640678 -11.105085  L 79.2 -11.105085  L 76.759322 -11.105085  L 74.318644 -11.105085  L 71.877966 -11.105085  L 69.437288 -11.105085  L 66.99661 -11.105085  L 64.555932 -11.105085  L 62.115254 -11.105085  L 59.674576 -11.105085  L 57.233898 -11.105085  L 54.79322 -11.105085  L 52.352542 -11.105085  L 49.911864 -11.105085  L 47.471186 -11.105085  L 45.030508 -11.105085  L 42.589831 -11.105085  L 40.149153 -11.105085  L 37.708475 -11.105085  L 35.267797 -11.105085  L 32.827119 -11.105085  L 30.386441 -11.105085  L 27.945763 -11.105085  L 25.505085 -11.105085  L 23.064407 -11.105085  L 20.623729 -11.105085  L 18.183051 -11.105085  L 15.742373 -11.105085  L 13.301695 -11.105085  L 10.861017 -11.105085  L 8.420339 -11.105085  L 5.979661 -11.105085  L 3.538983 -11.105085  L 1.098305 -11.105085  L -1.342373 -11.105085  L -3.783051 -11.105085  L -6.223729 -11.105085  z "
         id="path1767" />
    </clipPath>
    <clipPath
       id="p41adfa82e1-4">
      <path
         d="m 79.2,142.65763 c 16.829159,0 32.97131,-6.6863 44.87132,-18.58631 11.90001,-11.90001 18.58631,-28.042161 18.58631,-44.87132 0,-16.829159 -6.6863,-32.971306 -18.58631,-44.871318 C 112.17131,22.428669 96.029159,15.742373 79.2,15.742373 c -16.829159,0 -32.971306,6.686296 -44.871318,18.586309 C 22.428669,46.228694 15.742373,62.370841 15.742373,79.2 c 0,16.829159 6.686296,32.97131 18.586309,44.87132 11.900012,11.90001 28.042159,18.58631 44.871318,18.58631 z"
         id="path1764-3" />
    </clipPath>
    <clipPath
       id="clipPath3010">
      <path
         d="m 79.2,142.65763 c 16.829159,0 32.97131,-6.6863 44.87132,-18.58631 11.90001,-11.90001 18.58631,-28.042161 18.58631,-44.87132 0,-16.829159 -6.6863,-32.971306 -18.58631,-44.871318 C 112.17131,22.428669 96.029159,15.742373 79.2,15.742373 c -16.829159,0 -32.971306,6.686296 -44.871318,18.586309 C 22.428669,46.228694 15.742373,62.370841 15.742373,79.2 c 0,16.829159 6.686296,32.97131 18.586309,44.87132 11.900012,11.90001 28.042159,18.58631 44.871318,18.58631 z"
         id="path3008" />
    </clipPath>
    <clipPath
       id="clipPath3014">
      <path
         d="m 79.2,142.65763 c 16.829159,0 32.97131,-6.6863 44.87132,-18.58631 11.90001,-11.90001 18.58631,-28.042161 18.58631,-44.87132 0,-16.829159 -6.6863,-32.971306 -18.58631,-44.871318 C 112.17131,22.428669 96.029159,15.742373 79.2,15.742373 c -16.829159,0 -32.971306,6.686296 -44.871318,18.586309 C 22.428669,46.228694 15.742373,62.370841 15.742373,79.2 c 0,16.829159 6.686296,32.97131 18.586309,44.87132 11.900012,11.90001 28.042159,18.58631 44.871318,18.58631 z"
         id="path3012" />
    </clipPath>
    <clipPath
       id="clipPath3018">
      <path
         d="m 79.2,142.65763 c 16.829159,0 32.97131,-6.6863 44.87132,-18.58631 11.90001,-11.90001 18.58631,-28.042161 18.58631,-44.87132 0,-16.829159 -6.6863,-32.971306 -18.58631,-44.871318 C 112.17131,22.428669 96.029159,15.742373 79.2,15.742373 c -16.829159,0 -32.971306,6.686296 -44.871318,18.586309 C 22.428669,46.228694 15.742373,62.370841 15.742373,79.2 c 0,16.829159 6.686296,32.97131 18.586309,44.87132 11.900012,11.90001 28.042159,18.58631 44.871318,18.58631 z"
         id="path3016" />
    </clipPath>
    <clipPath
       id="clipPath3022">
      <path
         d="m 79.2,142.65763 c 16.829159,0 32.97131,-6.6863 44.87132,-18.58631 11.90001,-11.90001 18.58631,-28.042161 18.58631,-44.87132 0,-16.829159 -6.6863,-32.971306 -18.58631,-44.871318 C 112.17131,22.428669 96.029159,15.742373 79.2,15.742373 c -16.829159,0 -32.971306,6.686296 -44.871318,18.586309 C 22.428669,46.228694 15.742373,62.370841 15.742373,79.2 c 0,16.829159 6.686296,32.97131 18.586309,44.87132 11.900012,11.90001 28.042159,18.58631 44.871318,18.58631 z"
         id="path3020" />
    </clipPath>
    <clipPath
       id="clipPath3026">
      <path
         d="m 79.2,142.65763 c 16.829159,0 32.97131,-6.6863 44.87132,-18.58631 11.90001,-11.90001 18.58631,-28.042161 18.58631,-44.87132 0,-16.829159 -6.6863,-32.971306 -18.58631,-44.871318 C 112.17131,22.428669 96.029159,15.742373 79.2,15.742373 c -16.829159,0 -32.971306,6.686296 -44.871318,18.586309 C 22.428669,46.228694 15.742373,62.370841 15.742373,79.2 c 0,16.829159 6.686296,32.97131 18.586309,44.87132 11.900012,11.90001 28.042159,18.58631 44.871318,18.58631 z"
         id="path3024" />
    </clipPath>
    <clipPath
       id="clipPath3030">
      <path
         d="m 79.2,142.65763 c 16.829159,0 32.97131,-6.6863 44.87132,-18.58631 11.90001,-11.90001 18.58631,-28.042161 18.58631,-44.87132 0,-16.829159 -6.6863,-32.971306 -18.58631,-44.871318 C 112.17131,22.428669 96.029159,15.742373 79.2,15.742373 c -16.829159,0 -32.971306,6.686296 -44.871318,18.586309 C 22.428669,46.228694 15.742373,62.370841 15.742373,79.2 c 0,16.829159 6.686296,32.97131 18.586309,44.87132 11.900012,11.90001 28.042159,18.58631 44.871318,18.58631 z"
         id="path3028" />
    </clipPath>
    <clipPath
       id="p93517fecb0-7">
      <rect
         height="136.67796"
         width="144"
         x="7.1999998"
         y="10.861017"
         id="rect1761-2" />
    </clipPath>
  </defs>
  <sodipodi:namedview
     id="base"
     pagecolor="#ffffff"
     bordercolor="#666666"
     borderopacity="1.0"
     inkscape:pageopacity="0.0"
     inkscape:pageshadow="2"
     inkscape:zoom="3.959798"
     inkscape:cx="68.69648"
     inkscape:cy="75.193747"
     inkscape:document-units="mm"
     inkscape:current-layer="layer9"
     inkscape:document-rotation="0"
     showgrid="false"
     inkscape:window-width="1267"
     inkscape:window-height="967"
     inkscape:window-x="9"
     inkscape:window-y="31"
     inkscape:window-maximized="0" />
  <metadata
     id="metadata5">
    <rdf:RDF>
      <cc:Work
         rdf:about="">
        <dc:format>image/svg+xml</dc:format>
        <dc:type
           rdf:resource="http://purl.org/dc/dcmitype/StillImage" />
        <dc:title></dc:title>
      </cc:Work>
    </rdf:RDF>
  </metadata>
  <g
     inkscape:groupmode="layer"
     id="layer3"
     inkscape:label="block"
     style="display:inline">
    <rect
       style="fill:#6c757d;fill-opacity:1;stroke-width:0.0695603"
       id="rect1571"
       width="39.947575"
       height="39.947575"
       x="0.043889061"
       y="1.6348703e-06"
       ry="5.0875082" />
  </g>
  <g
     inkscape:groupmode="layer"
     id="layer2"
     inkscape:label="circle"
     style="display:inline">
    <circle
       style="opacity:1;fill:#ffffff;stroke:none;stroke-width:0.097;stroke-miterlimit:4;stroke-dasharray:none;stroke-opacity:1"
       id="path2292"
       cx="19.985491"
       cy="19.135044"
       r="15.262283" />
  </g>
  <g
     inkscape:groupmode="layer"
     id="layer7"
     inkscape:label="mtn-bottom"
     style="display:inline">
    <path
       clip-path="url(#p41adfa82e1-4)"
       d="M 23.064407,169.50508 H 37.708475 V 101.34621 H 23.064407 Z"
       style="display:inline;fill:#6c757d;fill-opacity:1;stroke:#ffffff;stroke-linecap:butt;stroke-linejoin:miter"
       id="path924-2"
       transform="matrix(0.23316113,0,0,0.23316113,1.4950207,0.71011378)" />
    <path
       clip-path="url(#p41adfa82e1-4)"
       d="M 37.708475,169.50508 H 52.352542 V 91.146787 H 37.708475 Z"
       style="display:inline;fill:#6c757d;fill-opacity:1;stroke:#ffffff;stroke-linecap:butt;stroke-linejoin:miter"
       id="path927-7"
       transform="matrix(0.23316113,0,0,0.23316113,1.4950207,0.71011378)" />
    <path
       clip-path="url(#p41adfa82e1-4)"
       d="M 52.352542,169.50508 H 66.99661 V 89.307769 H 52.352542 Z"
       style="display:inline;fill:#6c757d;fill-opacity:1;stroke:#ffffff;stroke-linecap:butt;stroke-linejoin:miter"
       id="path930-6"
       transform="matrix(0.23316113,0,0,0.23316113,1.4950207,0.71011378)" />
    <path
       clip-path="url(#p41adfa82e1-4)"
       d="M 66.99661,169.50508 H 81.640678 V 97.492473 H 66.99661 Z"
       style="display:inline;fill:#6c757d;fill-opacity:1;stroke:#ffffff;stroke-linecap:butt;stroke-linejoin:miter"
       id="path933-2"
       transform="matrix(0.23316113,0,0,0.23316113,1.4950207,0.71011378)" />
    <path
       clip-path="url(#p41adfa82e1-4)"
       d="M 81.640678,169.50508 H 96.284746 V 108.7954 H 81.640678 Z"
       style="display:inline;fill:#6c757d;fill-opacity:1;stroke:#ffffff;stroke-linecap:butt;stroke-linejoin:miter"
       id="path936-0"
       transform="matrix(0.23316113,0,0,0.23316113,1.4950207,0.71011378)" />
    <path
       clip-path="url(#p41adfa82e1-4)"
       d="M 96.284746,169.50508 H 110.92881 V 116.52669 H 96.284746 Z"
       style="display:inline;fill:#6c757d;fill-opacity:1;stroke:#ffffff;stroke-linecap:butt;stroke-linejoin:miter"
       id="path939-3"
       transform="matrix(0.23316113,0,0,0.23316113,1.4950207,0.71011378)" />
    <path
       clip-path="url(#p41adfa82e1-4)"
       d="m 110.92881,169.50508 h 14.64407 v -49.71521 h -14.64407 z"
       style="display:inline;fill:#6c757d;fill-opacity:1;stroke:#ffffff;stroke-linecap:butt;stroke-linejoin:miter"
       id="path942-5"
       transform="matrix(0.23316113,0,0,0.23316113,1.4950207,0.71011378)" />
  </g>
  <g
     inkscape:groupmode="layer"
     id="layer8"
     inkscape:label="mtn-top"
     style="display:inline">
    <path
       d="m 0.04388851,17.541245 v 5.223134 L 0.61295981,22.5969 1.182031,22.417565 1.7511022,22.226556 2.3201735,22.024218 2.8892447,21.811071 3.458316,21.587816 l 0.5690712,-0.23247 0.5690714,-0.240601 0.569071,-0.247454 0.569071,-0.252846 0.569072,-0.256594 0.569071,-0.258538 0.569071,-0.258527 0.569071,-0.256437 0.569072,-0.252168 0.569071,-0.245648 0.569071,-0.236838 0.5690714,-0.225735 0.569071,-0.212369 0.569072,-0.196811 0.569071,-0.179168 0.569071,-0.159582 0.569071,-0.138232 0.569071,-0.115328 0.569072,-0.09111 0.569071,-0.06585 0.569071,-0.03982 0.569071,-0.01333 0.569072,0.01333 0.569071,0.03982 0.569071,0.06585 0.569071,0.09111 0.569072,0.115328 0.569071,0.138232 0.569071,0.159582 0.569071,0.179168 0.569072,0.196811 0.569071,0.212369 0.569071,0.225735 0.569071,0.236838 0.569072,0.245648 0.569071,0.252168 0.569071,0.256437 0.569071,0.258527 0.569072,0.258538 0.569071,0.256594 0.569072,0.252846 0.569069,0.247454 0.569072,0.240601 0.569072,0.23247 0.569071,0.223255 0.569072,0.213147 0.569069,0.202338 0.569072,0.191009 0.569072,0.179335 0.569072,0.167479 0.569069,0.155593 0.569072,0.143809 0.569071,0.132247 0.569072,0.12101 0.569072,0.110186 0.569069,0.09984 0.569072,0.09004 0.569072,0.08081 0.569071,0.07219 0.569072,0.06419 0.569069,0.05682 0.569072,0.05006 0.569072,0.0439 0.569072,0.03833 v -8.150173 0 L 39.309804,15.682223 38.740732,15.479886 38.17166,15.266737 37.602591,15.043483 37.033519,14.811012 36.464448,14.570413 35.895376,14.322957 35.326304,14.070112 34.757235,13.813518 34.188163,13.55498 33.619091,13.296453 33.05002,13.040016 32.480948,12.787847 31.911879,12.5422 l -0.569072,-0.236838 -0.569072,-0.225735 -0.569072,-0.21237 -0.569069,-0.196811 -0.569072,-0.179168 -0.569071,-0.15958 -0.569072,-0.138232 -0.569072,-0.115329 -0.569069,-0.09111 -0.569072,-0.06585 -0.569071,-0.03982 -0.569072,-0.01331 -0.569071,0.01331 -0.569071,0.03982 -0.569071,0.06585 -0.569072,0.09111 -0.569071,0.115329 -0.569071,0.138232 -0.569071,0.15958 -0.569072,0.179168 -0.569071,0.196811 -0.569071,0.21237 -0.569071,0.225735 -0.569072,0.236838 -0.569071,0.245647 -0.569071,0.252169 -0.569071,0.256437 -0.569072,0.258527 -0.569071,0.258538 -0.569071,0.256594 -0.569071,0.252845 -0.569072,0.247456 -0.569071,0.240599 -0.569071,0.232471 -0.569071,0.223254 -0.569071,0.213149 -0.569072,0.202337 -0.569071,0.191008 -0.5690714,0.179336 -0.569071,0.16748 -0.569071,0.155593 -0.569072,0.143806 -0.569071,0.132247 -0.569071,0.121011 -0.569071,0.110187 -0.569072,0.09984 -0.569071,0.09004 -0.569071,0.08081 -0.5690714,0.07219 -0.5690712,0.06419 -0.5690713,0.05682 -0.5690712,0.05006 -0.5690713,0.0439 -0.5690712,0.03833 -0.56907119,0.03332 z"
       id="use910-8"
       style="display:inline;fill:#6c757d;fill-opacity:1;stroke-width:0.233161;stroke-linecap:butt;stroke-linejoin:round" />
  </g>
  <g
     inkscape:groupmode="layer"
     id="layer9"
     inkscape:label="outer-circle"
     style="display:inline">
    <path
       clip-path="url(#p93517fecb0-7)"
       d="m 146.31864,79.2 c 0,-8.81394 -1.73615,-17.542175 -5.1091,-25.685193 -3.37295,-8.143018 -8.3171,-15.542459 -14.54949,-21.774855 C 120.42765,25.507555 113.02821,20.563407 104.88519,17.190458 96.742175,13.81751 88.01394,12.081356 79.2,12.081356 c -8.81394,0 -17.542175,1.736154 -25.685193,5.109102 C 45.371789,20.563407 37.972348,25.507555 31.739952,31.739952 25.507555,37.972348 20.563407,45.371789 17.190458,53.514807 13.81751,61.657825 12.081356,70.38606 12.081356,79.2 c 0,8.81394 1.736154,17.542175 5.109102,25.68519 3.372949,8.14302 8.317097,15.54246 14.549494,21.77486 6.232396,6.23239 13.631837,11.17654 21.774855,14.54949 8.143018,3.37295 16.871253,5.1091 25.685193,5.1091 8.81394,0 17.542175,-1.73615 25.68519,-5.1091 8.14302,-3.37295 15.54246,-8.3171 21.77486,-14.54949 6.23239,-6.2324 11.17654,-13.63184 14.54949,-21.77486 3.37295,-8.143015 5.1091,-16.87125 5.1091,-25.68519 m -1.22034,0 c 0,8.653686 -1.70458,17.223226 -5.01621,25.21819 -3.31162,7.99496 -8.16587,15.25987 -14.28495,21.37895 -6.11908,6.11908 -13.38399,10.97333 -21.37895,14.28495 -7.994964,3.31163 -16.564504,5.01621 -25.21819,5.01621 -8.653686,0 -17.223226,-1.70458 -25.21819,-5.01621 C 45.986847,136.77047 38.721942,131.91622 32.602862,125.79714 26.483781,119.67806 21.629527,112.41315 18.317905,104.41819 15.006282,96.423226 13.301695,87.853686 13.301695,79.2 c 0,-8.653686 1.704587,-17.223226 5.01621,-25.21819 3.311622,-7.994963 8.165876,-15.259868 14.284957,-21.378948 6.11908,-6.119081 13.383985,-10.973335 21.378948,-14.284957 7.994964,-3.311623 16.564504,-5.01621 25.21819,-5.01621 8.653686,0 17.223226,1.704587 25.21819,5.01621 7.99496,3.311622 15.25987,8.165876 21.37895,14.284957 6.11908,6.11908 10.97333,13.383985 14.28495,21.378948 3.31163,7.994964 5.01621,16.564504 5.01621,25.21819 m 1.22034,0 z"
       style="display:inline;fill:#a3a3a3;fill-opacity:1;stroke:#a3a3a3;stroke-linecap:butt;stroke-linejoin:miter;stroke-opacity:1"
       id="path915-8"
       transform="matrix(0.23316113,0,0,0.23316113,1.4950207,0.71011448)" />
  </g>
</svg>
