<?xml version="1.0" encoding="UTF-8" standalone="no"?>
<svg
   xmlns:dc="http://purl.org/dc/elements/1.1/"
   xmlns:cc="http://creativecommons.org/ns#"
   xmlns:rdf="http://www.w3.org/1999/02/22-rdf-syntax-ns#"
   xmlns:svg="http://www.w3.org/2000/svg"
   xmlns="http://www.w3.org/2000/svg"
   xmlns:sodipodi="http://sodipodi.sourceforge.net/DTD/sodipodi-0.dtd"
   xmlns:inkscape="http://www.inkscape.org/namespaces/inkscape"
   width="40mm"
   height="40mm"
   viewBox="0 0 40 40"
   version="1.1"
   id="svg8"
   inkscape:version="1.0.2-2 (e86c870879, 2021-01-15)"
   sodipodi:docname="spacy_box.svg"
   inkscape:export-filename="C:\Users\chops\Pictures\work_images\c_sharp_2.png"
   inkscape:export-xdpi="5.3492537"
   inkscape:export-ydpi="5.3492537">
  <defs
     id="defs2" />
  <sodipodi:namedview
     id="base"
     pagecolor="#ffffff"
     bordercolor="#666666"
     borderopacity="1.0"
     inkscape:pageopacity="0.0"
     inkscape:pageshadow="2"
     inkscape:zoom="1.4"
     inkscape:cx="-33.421664"
     inkscape:cy="-88.61404"
     inkscape:document-units="mm"
     inkscape:current-layer="layer2"
     inkscape:document-rotation="0"
     showgrid="false"
     inkscape:window-width="1267"
     inkscape:window-height="967"
     inkscape:window-x="52"
     inkscape:window-y="34"
     inkscape:window-maximized="0" />
  <metadata
     id="metadata5">
    <rdf:RDF>
      <cc:Work
         rdf:about="">
        <dc:format>image/svg+xml</dc:format>
        <dc:type
           rdf:resource="http://purl.org/dc/dcmitype/StillImage" />
        <dc:title></dc:title>
      </cc:Work>
    </rdf:RDF>
  </metadata>
  <g
     inkscape:groupmode="layer"
     id="layer3"
     inkscape:label="block"
     style="display:inline">
    <rect
       style="fill:#6c757d;fill-opacity:1;stroke-width:0.0695603"
       id="rect1571"
       width="39.947575"
       height="39.947575"
       x="0.043889061"
       y="1.6348703e-06"
       ry="5.0875082" />
  </g>
  <g
     inkscape:groupmode="layer"
     id="layer2"
     inkscape:label="vector"
     style="display:inline">
    <path
       style="fill:#ffffff;fill-opacity:1;stroke:none;stroke-width:0.0303842"
       d="m 27.683129,18.640425 c -0.929638,0.122419 -1.819956,0.41869 -2.490326,1.11144 -1.708844,1.765972 -1.615048,5.391882 0.272275,7.009542 0.688143,0.58982 1.503808,0.735969 2.369974,0.838151 0.575782,0.06794 1.217346,-0.02494 1.76229,-0.22299 0.931763,-0.338633 1.781127,-1.018755 2.0572,-2.003723 0.108866,-0.388372 0.1731,-0.858296 -0.118318,-1.184532 -0.332008,-0.371661 -0.896944,-0.347141 -1.190306,0.06034 -0.318609,0.442548 -0.394234,0.969745 -0.809802,1.364529 -0.879412,0.835416 -2.43126,0.704065 -3.174155,-0.24034 -0.358839,-0.456129 -0.477154,-1.048502 -0.537316,-1.610368 -0.162798,-1.520583 0.263341,-3.465029 2.040791,-3.719661 0.262703,-0.03763 0.530633,-0.01464 0.789992,0.03732 0.556458,0.111489 0.981048,0.4804 1.285408,0.94775 0.31226,0.479494 0.62865,1.265324 1.358026,0.900043 0.776775,-0.38901 0.293299,-1.568586 -0.10528,-2.054646 -0.789447,-0.962745 -2.301431,-1.392076 -3.510453,-1.232862 M 4.9860589,21.010389 c -0.4456313,0.05855 -0.8563295,0.116584 -1.2761405,0.291324 -1.163761,0.484356 -1.5066393,2.029641 -0.4557647,2.839687 0.7224685,0.556883 1.7269005,0.569158 2.5522814,0.879747 0.383267,0.144204 0.8317395,0.489703 0.6728904,0.959384 -0.2724253,0.805427 -1.7755369,0.598024 -2.2524269,0.149096 -0.2466934,-0.232257 -0.3540144,-0.638921 -0.6386364,-0.817702 -0.2122524,-0.133357 -0.5491924,-0.13047 -0.7593697,0.0042 -0.6267164,0.40165 -0.1641772,1.307162 0.2733396,1.651356 0.8093192,0.636703 2.1313308,0.663562 3.0991984,0.489005 C 6.5993134,27.384716 6.988354,27.261959 7.3256499,27.033074 8.1051897,26.504113 8.4173577,25.046943 7.6290372,24.384292 6.9346649,23.800549 5.8978611,23.675609 5.0468279,23.461825 4.6397719,23.359551 4.0437236,23.127841 4.1106568,22.607874 c 0.06819,-0.529689 0.810723,-0.660464 1.2400135,-0.598571 0.7246654,0.104461 0.9940533,1.123489 1.7319053,1.096812 0.892174,-0.03224 0.7411033,-0.949752 0.2730029,-1.408586 -0.5651481,-0.553966 -1.596543,-0.788685 -2.3695196,-0.687141 m 5.9553221,5.51706 h 0.03039 c 0.826544,1.619119 3.371928,1.19544 4.220683,-0.121538 0.747515,-1.159859 0.740769,-2.877058 0.08441,-4.071495 -0.636612,-1.158493 -2.19557,-1.696025 -3.393562,-1.069983 -0.378498,0.197801 -0.664778,0.509696 -0.941915,0.826908 -3e-5,-0.29178 -0.02154,-0.618502 -0.222686,-0.849453 -0.315845,-0.362607 -0.9612676,-0.304907 -1.1927048,0.12023 -0.1384008,0.254256 -0.1038224,0.57244 -0.1038224,0.850761 v 1.610368 4.10188 c 0,0.505929 -0.1407698,1.277812 0.1241499,1.731875 0.2953659,0.506293 1.1158023,0.362576 1.3011773,-0.151891 0.12646,-0.350969 0.09389,-0.75742 0.09389,-1.124219 v -1.853443 m 10.087587,-3.190351 c -0.65068,0.08763 -1.30531,0.307732 -1.944594,0.459289 -0.727523,0.172461 -1.51651,0.266409 -2.025845,0.87762 -0.971202,1.16545 0.02577,2.683875 1.357389,2.847434 0.623304,0.07654 1.322508,-0.03926 1.883828,-0.319734 0.296125,-0.147942 0.549833,-0.395117 0.85076,-0.522336 0.114215,0.301321 0.397487,0.673589 0.698838,0.804181 0.352335,0.152682 0.871938,-0.02397 0.983298,-0.409185 0.134419,-0.465063 -0.171095,-1.052148 -0.218554,-1.519215 -0.120323,-1.184411 0.319093,-2.82176 -0.47664,-3.828392 -0.302811,-0.383116 -0.794853,-0.557217 -1.260402,-0.635639 -0.935169,-0.157543 -2.000169,-0.124211 -2.886508,0.234566 -0.584868,0.236724 -1.329556,0.973604 -0.977158,1.677184 0.160032,0.319521 0.62394,0.466338 0.945558,0.306273 0.337967,-0.168208 0.461234,-0.698322 0.791207,-0.926934 0.500644,-0.346837 1.555222,-0.438475 1.999744,0.04457 0.224448,0.243925 0.265406,0.591826 0.279079,0.910314 m 14.645232,2.461128 c -0.365827,-0.69419 -0.549349,-1.564366 -0.800018,-2.309207 -0.166811,-0.49578 -0.330888,-0.992564 -0.496481,-1.488831 -0.09449,-0.284032 -0.173798,-0.607503 -0.406237,-0.813873 -0.538107,-0.477441 -1.386829,0.0388 -1.271583,0.72272 0.07392,0.438659 0.342126,0.893785 0.507114,1.306526 0.365219,0.912896 0.740769,1.82166 1.105989,2.734587 0.133995,0.334926 0.273155,0.667695 0.407147,1.002681 0.05348,0.13363 0.161647,0.307793 0.13916,0.455765 -0.07292,0.483384 -0.477335,1.265202 -1.00815,1.331288 -0.398642,0.04962 -0.907275,-0.223142 -1.233784,0.13363 -0.354249,0.387127 -0.0057,0.908218 0.413408,1.021764 0.755961,0.20482 1.881092,0.121506 2.458395,-0.453668 0.514405,-0.512645 0.738033,-1.309594 0.987794,-1.972246 0.420821,-1.115377 0.859571,-2.224191 1.273102,-3.342273 0.260698,-0.704703 0.585808,-1.400078 0.779962,-2.126901 0.0869,-0.326205 0.04953,-0.716005 -0.273152,-0.900377 -0.401986,-0.229645 -0.875068,-0.01744 -1.044615,0.383844 -0.290169,0.685835 -0.493439,1.425936 -0.74958,2.126901 -0.263734,0.721233 -0.586416,1.446961 -0.788471,2.18767 M 12.308675,22.221993 c 1.583721,-0.226272 1.951888,1.665363 1.667187,2.847009 -0.144387,0.599269 -0.529325,1.152081 -1.181038,1.236975 -1.544981,0.201266 -1.983001,-1.558958 -1.719022,-2.75619 0.142715,-0.647186 0.531421,-1.227556 1.232873,-1.327794 m 8.68991,2.117786 c 0,0.80883 -0.04105,1.740169 -0.941914,2.063397 -0.339422,0.121781 -0.847326,0.168026 -1.184987,0.02285 -0.414928,-0.178386 -0.777444,-0.652898 -0.546919,-1.113949 0.199718,-0.399432 0.6103,-0.469741 1.002683,-0.553329 0.56223,-0.119714 1.111731,-0.290717 1.671137,-0.418969 z"
       id="path893" />
  </g>
  <g
     inkscape:groupmode="layer"
     id="layer4"
     inkscape:label="top" />
</svg>
